<?xml version="1.0" encoding="utf-8"?>
<!-- Generator: Adobe Illustrator 20.1.0, SVG Export Plug-In . SVG Version: 6.00 Build 0)  -->
<svg version="1.1" id="Layer_1" xmlns="http://www.w3.org/2000/svg" xmlns:xlink="http://www.w3.org/1999/xlink" x="0px" y="0px"
	 viewBox="0 0 982.1 275" style="enable-background:new 0 0 982.1 275;" xml:space="preserve">
<g id="icomoon-ignore">
</g>
<path d="M144.4,13.3c-27.6-9.3-53.9,15.2-90.1,10C18.2,18-3.8,49.4,0.5,62.7C4.9,75.9,26.8,56,46.7,76.2
	c19.9,20.2,47,28.7,57.3,18.8c10.2-9.9,4-20.2,19.7-26.9c15.7-6.7,27-27,29.3-36.1C155.6,21.8,154.2,16.6,144.4,13.3L144.4,13.3z
	 M274.8,19.1c-14.2,8.3,6.5,15,12.8,31.1c3.4,8.6,5.9,19.8,6.3,29.4c0.4,9.1,5.7,11.7,13.7,1.5c13.3-17,19.9-24.1,60.3-17.4
	c20.4,3.4,38.5-9.1,45.5-20.1c2.6-4.1,9.6-19.4-8.9-19c-15.8,0.4-21.7,0.6-33.3-8.6C357.4,5,343.7-0.2,332.4,0
	c-9.6,0.2-17.4,4.6-23.2,8.7C296.7,17.4,285,13.1,274.8,19.1L274.8,19.1z M114.8,91.6c-7.3,15-0.7,27,1.2,45.3
	c2,18.3-10.3,37.4-5.9,33.5c4.4-3.9,14.7-14.2,13.2-30.2c-1.5-16-9.4-35.7-8.8-40.8C115.1,94.3,114.8,91.6,114.8,91.6z M274.5,179.7
	c1.5,10.4-3,6.4-3.3,8.5c-0.1,0.7,0.4,2.2,1.3,3.2c2.1,2.3,1.2,5.4-1.1,11.3c-4.2,10.7-11.9,18.4-16.3,13.5c-2.3-2.5-7.2,1.4-12.9,2
	c-5.8,0.7-13.6-3.7-18-10.3c-4.4-6.6-7.2-12-1.8-13.8c5.5-1.8-7.2-7.5-8.9-12.1c-1.8-4.6,1.5-7.3,4.6-10.9c3.1-3.6,14.4-7.7,22-7.6
	C270.8,163.7,273.6,173.1,274.5,179.7L274.5,179.7z M240,170.2c-3.9-0.3-9.3,3.3-13.3,6.4c-5.6,4.4,14.8,3.3,17.5-1.6
	C245.3,173.2,242.4,170.4,240,170.2L240,170.2z M188.9,232c3.8,0.9,1.9,1.9-0.1,2.1c-7.6,0.7-16.8-3.5-27.1-19.2
	c-4.1-6.2-9.6-7.5-13.2-11.7c-7.9-9.1-12.8-18.8-18.1-31.8c-7.6-19,1.5-2.6,4.6,0.3c9.6,8.9,11.1,20.2,17.5,26.8
	c6.4,6.6,14,7.6,18,16.4C176,226.9,183.7,230.7,188.9,232L188.9,232z M299,94.4c-0.5,7.3,0.4,16.2-2.9,21.7
	c-3.2,5.5-3.2,15.4-2.9,18.5c0.4,3.1,0.7-0.8,2.9-6.7c2.2-5.9,5.4-9.5,6.8-16.2C304.4,105.1,299.4,88.9,299,94.4z M276.4,117
	c-3.6,1-8.5,5.1-7.9,0.6c1.5-2-4.6-16.3-3.1-24.2c1.5-7.8,7.1-10.1,13.3-9.3c6.2,0.8,12.9,8.3,12.2,15.8
	C289.6,112.3,280,116,276.4,117L276.4,117z M274.7,86.8c-2.9,1.8-5.5,4.7-6.2,7.7c0.8,3.8,2.6,5.3,3.7,5.9c2.4-5.2,4.8-7.9,6.1-8.9
	C277.7,90.6,274.7,86.8,274.7,86.8L274.7,86.8z M185.3,12.1c15.7-6,35.1-7.2,42.6-5.7c7.5,1.6-7.7,0.1-11.3,1.4
	c-6.7,2.5,7.8,3.4,17.3,6.5c9.5,3.1,19,6.7,24,13.8c0.9,2-6.9-4.4-19.5-8c-12.7-3.6-29.1-6.7-52.7-4.9
	C178.9,15.7,177.3,15.1,185.3,12.1z M282.3,212.4c-1.6-3.9-3.4,7.3-4.3,11.4c-1.9,8.6-6.8,11.9-11,13.5c-5,0.8-10.4-1.1-13.3-4.3
	c-4.2-4.8-3.7-10-6.2-7.6c-2.3,2.2-4.2,5.2-10.8,9.5c-13.7,9-29.9,2.2-35.5-1c-2.5-2.1-3.9,0.1-0.8,3.2c8.5,8.2,21.3,10.8,30.3,9.1
	c4.5-0.8,10-1.3,14.9-1.4c4.9-0.2,9.4-0.1,11.8,0.1c2.5,0.2,4.5-0.1,6.3-0.6c3.9-0.6,9.8-2.9,12.8-7.1
	C284.8,225.2,283.3,214.8,282.3,212.4L282.3,212.4z M191.1,111.2c1.4-2.2,0.3-6.9-0.4-9.5c-0.3-1-0.4-2.4-0.5-4
	c-0.4-5.4-0.9-13.5-10.1-17.7c-11.4-5.2-22.2,4.5-25.2,10.6c-1.1,2.2-1.7,4.7-1.7,7.4c0,0.7,0,1.4,0.1,2.1c0.5,4.8,3.6,9.9,8,12.9
	c3.5,2.4,7.4,3.3,11,2.3c6.3-1.7,11.1-2.2,14.3-2.6l2.7-0.3C190.1,112.2,190.7,111.8,191.1,111.2L191.1,111.2z M184.3,89.3
	c2.4,3.7,2.5,17.2-1,19.8c-3.5,2.6-3.7-4.2-1.2-9.1c0.9-1.7,1.7-8.3,1.4-9.1S183.5,88,184.3,89.3z M169,90.6c-1.2,1.1-3.4,4.1-5,9.4
	c-1.4-0.4-3.7-1.7-5.3-5.2c0.2-3,2.5-6.1,5.4-8.3C164.1,86.5,168.2,89.8,169,90.6z M153.8,259.1c-38.9-16.4-62-43.9-62-72.2
	c0-2,0.1-3.9,0.3-5.9c0.3-3,1.8-7.5,3-10.2c0.6,31.1,25.3,62.9,61.9,79.6l0,0c7.9,3.6,27,10.2,27.8,10.5c5.1,1.6,7.1,2,8.7,2.5
	C188.3,266.9,170.7,266.3,153.8,259.1z M375.3,117.9c33,0,47.8,26.4,47.8,62.4c0,40.2-14.9,63.7-50.9,63.7h-24.9V117.9L375.3,117.9
	L375.3,117.9z M359.3,232.7h11.2c28.3-0.3,40.7-16.2,40.7-52.8c0-32.3-11.7-50.2-35.1-50.6h-16.8V232.7z M436.6,199.3
	c0-33.5,14.3-47.3,32.2-47.3c17.9,0,32.2,13.8,32.2,47.3s-14.3,47.3-32.2,47.3C450.9,246.6,436.6,232.8,436.6,199.3L436.6,199.3z
	 M489.7,199.3c0-15.2-3.4-36.6-20.9-36.6c-17.5,0-20.9,21.4-20.9,36.6s3.4,36.6,20.9,36.6S489.7,214.5,489.7,199.3z M579.4,162.7
	h-4.2c-3.2,0-5.3,0.2-8.2,1.9c3.4,5.5,5,11.8,5,18.5c0,17.3-11.5,30.8-27.1,30.8c-4.7,0-8.8-1-13-2.8c-2.5,2.3-6.9,5.2-6.9,9.6
	c0,11.3,53.7-2.9,53.7,31c0,6.6-1.9,23.3-34.1,23.3c-26.2,0-34.4-11.3-34.4-22.4c0-9.2,7.3-14.3,14-17.5c-4.8-2.1-10.1-6-10.1-12.5
	c0-7.9,5.5-10.4,10.1-16.4c-5.8-7.6-8.9-13-8.9-23.5c0-18.2,12.3-30.8,28.4-30.8c6.4,0,12.3,2.1,17.5,6.3c5.3-4.4,11.4-7.6,18.2-6.8
	L579.4,162.7L579.4,162.7z M536.2,238.5c-6.1,1.3-15.2,5.3-15.2,13.5c0,12.3,16.3,13,24.1,13c8.2,0,22.6-1.8,22.6-14.1
	c0-9.4-13.4-10.5-19.5-11L536.2,238.5L536.2,238.5z M543.9,161.5c-10.9,0-17.8,10.2-17.8,21.7c0,11.2,6.3,21.1,16.8,21.1
	c11.7,0,18.1-8.9,18.1-21.2C561,171.4,555.3,161.5,543.9,161.5z M633.3,174.5c-4.5-7.5-9.9-11.8-18.4-11.8
	c-7.4,0-14.4,4.2-14.4,13.3c0,21.9,42.4,12.3,42.4,42.5c0,17.5-11.2,28.2-26.4,28.2c-13,0-23.5-6.3-30-18.8l9-6.3
	c4.4,9.2,11.4,14.4,21,14.4c8.3,0,15.7-5,15.7-15.2c0-22.5-42.4-11.8-42.4-43.9c0-15.4,11.4-24.8,24.6-24.8
	c11.2,0,20.6,5.2,26.8,15.6L633.3,174.5L633.3,174.5z M723.7,139.3h-29.5V244h-22.8V139.3h-29.5v-21.4h81.7L723.7,139.3L723.7,139.3
	z M743.3,169.1c8.3-10.9,15-17.8,24.9-17.8h4.1v24c-2-0.5-4.1-1-6.3-1c-5.5,0-22.8,5.7-22.8,29.8V244h-21.6v-90.7h21.6L743.3,169.1
	L743.3,169.1z M830.9,234.6c-6.9,6.3-15.3,11.3-24.4,11.3c-8.9,0-21.4-6-21.4-28.4v-64.3h21.6v54.6c0,7.3-0.4,18.8,8.9,18.8
	c6.3,0,11.2-5,15.3-9.9v-63.5h21.6V244H831L830.9,234.6L830.9,234.6z M905.2,179.8c-1-6.3-2.9-10.9-9.3-10.9
	c-5.1,0-8.8,4.2-8.8,10.1c0,15.6,39.5,4.2,39.5,38.2c0,19.3-14.4,28.7-31.1,28.7c-16.8,0-27.4-9.1-29.6-27.9l20.3-2.4
	c0.4,6.5,3.5,12.6,10.1,12.6c5.4,0,10.5-2.8,10.5-9.7c0-15.9-39.5-2.9-39.5-38.2c0-18.3,14.2-29,30-29c14.3,0,25.8,10,28.3,25.8
	L905.2,179.8L905.2,179.8z M965.3,153.3h16.8v19.9h-16.8v46.2c0,4.4,1.2,8.9,8.2,8.9c3.6,0,6-1.6,8.6-3.4v18.3
	c-4.5,1.5-9.2,2.8-13.9,2.8c-13.4,0-24.5-8.4-24.5-28.2v-44.6h-10.1v-19.9h10.1v-22.7h21.6L965.3,153.3L965.3,153.3z"/>
</svg>
